<svg width="1880" height="508" viewBox="0 0 1880 508" fill="none" xmlns="http://www.w3.org/2000/svg">
<path d="M73.1814 7.01611V402.07H208.572V467.367H3.69666V7.01611H73.1814Z" fill="#a5a5a5"/>
<path d="M225.339 320.079C225.339 278.138 240.348 242.458 270.369 213.04C300.39 183.623 336.972 168.914 380.113 168.914C423.453 168.914 460.234 183.721 490.454 213.34C520.275 242.956 535.186 279.33 535.186 322.463C535.186 365.993 520.177 402.468 490.156 431.886C459.936 461.105 422.857 475.715 378.921 475.715C335.381 475.715 298.899 460.807 269.475 430.992C240.05 401.574 225.339 364.602 225.339 320.079ZM293.928 321.271C293.928 350.291 301.682 373.249 317.189 390.144C333.095 407.238 354.07 415.786 380.113 415.786C406.356 415.786 427.33 407.338 443.038 390.442C458.743 373.547 466.597 350.987 466.597 322.761C466.597 294.537 458.743 271.976 443.038 255.08C427.132 237.986 406.157 229.44 380.113 229.44C354.466 229.44 333.691 237.986 317.786 255.08C301.88 272.174 293.928 294.239 293.928 321.271Z" fill="#a5a5a5"/>
<path d="M635.082 7.01611V210.656C661.922 182.827 692.341 168.914 726.336 168.914C765.503 168.914 798.108 183.523 824.152 212.742C850.196 241.762 863.219 277.939 863.219 321.271C863.219 365.994 850.098 402.964 823.854 432.184C797.81 461.205 764.907 475.715 725.144 475.715C691.545 475.715 661.524 462.795 635.082 436.954V467.367H567.983V7.01611H635.082ZM794.63 324.253C794.63 296.425 787.074 273.765 771.965 256.272C756.655 238.384 737.471 229.44 714.408 229.44C689.756 229.44 669.676 238.086 654.168 255.378C638.861 272.473 631.205 294.735 631.205 322.165C631.205 350.39 638.761 372.952 653.87 389.846C668.98 407.138 688.862 415.786 713.514 415.786C736.775 415.786 756.059 407.138 771.368 389.846C786.876 372.354 794.63 350.49 794.63 324.253Z" fill="#a5a5a5"/>
<path d="M1169.76 337.967H961.609C963.398 361.819 971.152 380.802 984.869 394.914C998.588 408.828 1016.18 415.786 1037.65 415.786C1054.35 415.786 1068.17 411.81 1079.11 403.86C1089.84 395.908 1102.07 381.2 1115.79 359.733L1172.45 391.338C1163.7 406.244 1154.46 419.066 1144.71 429.798C1134.97 440.334 1124.53 449.079 1113.4 456.036C1102.27 462.795 1090.24 467.765 1077.32 470.945C1064.39 474.125 1050.38 475.715 1035.27 475.715C991.928 475.715 957.134 461.801 930.892 433.972C904.649 405.946 891.528 368.776 891.528 322.463C891.528 276.547 904.251 239.378 929.7 210.954C955.346 182.927 989.343 168.914 1031.69 168.914C1074.43 168.914 1108.23 182.529 1133.08 209.761C1157.74 236.794 1170.06 274.262 1170.06 322.165L1169.76 337.967ZM1100.88 283.107C1091.53 247.328 1068.97 229.44 1033.18 229.44C1025.03 229.44 1017.38 230.732 1010.22 233.316C1003.06 235.7 996.499 239.278 990.536 244.048C984.77 248.62 979.8 254.186 975.625 260.746C971.45 267.304 968.269 274.758 966.082 283.107H1100.88Z" fill="#a5a5a5"/>
<path d="M1281.57 7.05515V467.367H1214.47V7.05515H1281.57Z" fill="#a5a5a5"/>
<path d="M1399.95 176.963V467.367H1332.85V176.963H1399.95Z" fill="#a5a5a5"/>
<path d="M1662.18 176.963H1729.57V467.367H1662.18V436.954C1634.54 462.795 1604.82 475.715 1573.01 475.715C1532.85 475.715 1499.65 461.205 1473.4 432.184C1447.36 402.568 1434.34 365.596 1434.34 321.271C1434.34 277.74 1447.36 241.464 1473.4 212.444C1499.45 183.423 1532.05 168.914 1571.22 168.914C1605.02 168.914 1635.34 182.827 1662.18 210.656V176.963ZM1502.93 321.271C1502.93 349.097 1510.38 371.758 1525.29 389.25C1540.6 406.94 1559.89 415.786 1583.15 415.786C1608 415.786 1628.08 407.238 1643.39 390.144C1658.7 372.454 1666.35 349.993 1666.35 322.761C1666.35 295.531 1658.7 273.068 1643.39 255.378C1628.08 238.086 1608.2 229.44 1583.74 229.44C1560.68 229.44 1541.4 238.184 1525.89 255.676C1510.58 273.366 1502.93 295.232 1502.93 321.271Z" fill="#a5a5a5"/>
<path d="M1341.57 87.7041C1333.7 79.8331 1329.76 70.1351 1329.76 58.6099C1329.76 47.0847 1333.77 37.3164 1341.78 29.3049C1349.8 21.2936 1359.57 17.2878 1371.09 17.2878C1382.62 17.2878 1392.39 21.2936 1400.4 29.3049C1408.56 37.457 1412.63 47.2956 1412.63 58.8207C1412.63 70.0648 1408.56 79.7629 1400.4 87.9149C1392.11 96.2073 1382.34 100.354 1371.09 100.354C1359.85 100.354 1350.01 96.137 1341.57 87.7041Z" fill="#a5a5a5"/>
<path d="M1791.86 463.144C1783.98 455.273 1780.06 445.574 1780.06 434.049C1780.06 422.524 1784.05 412.755 1792.06 404.744C1800.07 396.733 1809.85 392.726 1821.38 392.726C1832.9 392.726 1842.67 396.733 1850.68 404.744C1858.85 412.896 1862.93 422.734 1862.93 434.261C1862.93 445.504 1858.85 455.202 1850.68 463.354C1842.4 471.646 1832.63 475.793 1821.38 475.793C1810.14 475.793 1800.29 471.576 1791.86 463.144Z" fill="#a5a5a5"/>
</svg>
